<?xml version="1.0" standalone="no"?>
<!DOCTYPE svg PUBLIC "-//W3C//DTD SVG 20010904//EN"
 "http://www.w3.org/TR/2001/REC-SVG-20010904/DTD/svg10.dtd">
<svg version="1.0" xmlns="http://www.w3.org/2000/svg"
 width="1600.000000pt" height="407.000000pt" viewBox="0 0 1600.000000 407.000000"
 preserveAspectRatio="xMidYMid meet">

<g transform="translate(0.000000,407.000000) scale(0.100000,-0.100000)"
fill="#000000" stroke="none">
<path d="M520 3465 l0 -155 245 0 245 0 0 -700 0 -700 220 0 220 0 0 700 0
700 250 0 250 0 0 155 0 155 -715 0 -715 0 0 -155z"/>
<path d="M2060 2765 l0 -855 208 2 207 3 5 420 c5 401 6 422 26 455 33 57 77
80 150 80 53 0 67 -4 94 -26 66 -56 65 -45 68 -512 l3 -422 212 2 211 3 -2
425 c-2 234 -8 452 -13 484 -6 33 -22 82 -35 109 -114 225 -480 271 -673 85
l-41 -39 0 321 0 320 -210 0 -210 0 0 -855z"/>
<path d="M9210 2765 l0 -855 220 0 220 0 0 340 0 340 185 0 c141 0 185 3 185
13 0 6 20 75 45 152 25 77 45 141 45 143 0 1 -103 2 -230 2 l-230 0 0 205 0
205 296 2 296 3 40 125 c22 69 44 137 48 153 l9 27 -565 0 -564 0 0 -855z"/>
<path d="M10445 3503 c-20 -64 -43 -133 -51 -155 l-13 -38 207 0 207 0 42 133
c22 72 44 142 48 155 l6 22 -205 0 -205 0 -36 -117z"/>
<path d="M12100 2765 l0 -855 205 0 205 0 0 23 c0 12 1 195 2 407 l3 385 25
50 c35 70 76 95 156 95 56 0 67 -3 98 -30 64 -56 66 -75 66 -527 l0 -403 213
0 212 0 -3 437 c-4 491 -8 528 -67 618 -60 90 -142 139 -268 161 -149 26 -300
-18 -391 -115 -16 -16 -33 -28 -37 -25 -5 3 -8 145 -8 317 l0 312 -206 3 -205
2 0 -855z"/>
<path d="M3855 3129 c-160 -21 -270 -73 -359 -170 -108 -116 -146 -229 -146
-436 0 -277 67 -450 212 -544 79 -51 161 -77 289 -91 235 -26 431 28 558 154
66 66 106 138 125 231 l6 27 -199 0 -199 0 -6 -34 c-23 -122 -186 -189 -293
-119 -24 15 -50 44 -61 67 -19 38 -42 142 -42 194 l0 22 403 0 402 0 -3 87
c-12 351 -144 544 -409 598 -98 19 -198 25 -278 14z m172 -228 c25 -12 52 -35
68 -59 26 -40 55 -127 55 -169 l0 -23 -201 0 -200 0 6 48 c16 116 56 181 131
207 53 19 92 18 141 -4z"/>
<path d="M7050 3133 c-151 -19 -287 -89 -337 -173 -9 -17 -20 -30 -23 -30 -4
0 -16 18 -28 39 -78 139 -305 196 -501 126 -68 -24 -163 -103 -177 -147 -13
-42 -24 -12 -24 67 l0 85 -205 0 -205 0 0 -594 0 -595 210 -1 209 -1 3 418 c3
395 4 420 23 458 30 59 75 85 149 85 63 0 93 -13 128 -55 37 -44 41 -91 45
-502 l5 -403 203 0 204 0 3 423 c3 405 4 423 24 457 32 56 77 80 146 80 72 0
108 -17 139 -67 l24 -38 5 -425 5 -425 219 -2 218 -2 -7 27 c-3 15 -10 225
-14 467 -8 487 -8 482 -77 576 -20 27 -55 63 -78 79 -72 49 -207 84 -286 73z"/>
<path d="M8130 3128 c-257 -31 -431 -167 -502 -393 -19 -60 -23 -92 -22 -225
0 -167 9 -217 63 -330 33 -70 148 -187 220 -223 120 -61 308 -89 465 -68 286
38 461 196 510 462 38 203 6 394 -90 539 -91 138 -230 214 -444 240 -94 11
-95 11 -200 -2z m171 -249 c113 -38 156 -161 146 -419 -7 -206 -45 -290 -145
-325 -54 -18 -65 -18 -114 -5 -115 32 -159 139 -159 382 0 154 16 236 57 298
45 68 134 96 215 69z"/>
<path d="M11335 3129 c-151 -20 -268 -71 -340 -151 -53 -60 -75 -120 -75 -213
0 -172 102 -262 400 -350 211 -63 270 -100 270 -171 0 -56 -17 -83 -62 -104
-105 -48 -202 1 -223 113 l-7 37 -196 0 -195 0 6 -69 c6 -74 39 -155 81 -202
61 -69 161 -111 312 -130 263 -33 509 31 609 158 121 155 92 392 -60 494 -50
33 -141 66 -315 114 -201 55 -239 81 -226 148 15 76 78 110 160 87 57 -16 86
-47 93 -99 l6 -41 188 0 c104 0 192 0 197 0 16 1 -2 98 -28 155 -61 132 -160
193 -360 220 -116 16 -134 16 -235 4z"/>
<path d="M13891 3129 c-40 -6 -109 -23 -153 -39 -165 -60 -269 -173 -322 -350
-24 -77 -31 -247 -17 -364 40 -311 178 -451 483 -487 286 -33 516 49 629 223
36 56 45 79 63 161 l6 27 -199 0 -198 0 -6 -36 c-23 -141 -236 -196 -330 -85
-34 41 -57 118 -57 193 l0 58 400 0 400 0 0 58 c0 81 -25 231 -50 307 -26 78
-83 168 -135 214 -106 93 -326 144 -514 120z m166 -220 c64 -24 118 -109 129
-204 l7 -55 -199 2 -199 3 4 45 c4 58 36 141 64 168 49 46 133 64 194 41z"/>
<path d="M15400 3128 c-36 -5 -88 -20 -117 -34 -59 -28 -126 -99 -143 -150
-20 -59 -30 -38 -30 61 l0 95 -211 0 -212 0 7 -52 c3 -29 6 -297 6 -595 l0
-543 204 0 c154 0 205 3 209 13 2 6 5 147 6 312 2 318 7 363 45 424 53 84 133
121 262 121 l72 0 1 163 c2 166 -2 198 -23 196 -6 -1 -40 -6 -76 -11z"/>
<path d="M5300 3096 c-93 -26 -157 -80 -203 -171 l-26 -50 -1 60 c0 33 -3 84
-6 113 l-7 52 -206 0 -206 0 7 -87 c3 -49 7 -317 7 -596 l1 -508 204 1 204 1
4 322 c5 360 9 385 75 450 46 46 107 67 216 74 l87 6 0 173 0 174 -52 -1 c-29
0 -73 -6 -98 -13z"/>
<path d="M10380 2505 l0 -595 205 0 205 0 0 595 0 595 -205 0 -205 0 0 -595z"/>
<path d="M1318 1428 c-88 -8 -155 -31 -211 -71 -116 -82 -148 -201 -84 -307
55 -92 114 -123 337 -175 118 -28 192 -59 222 -91 46 -51 45 -126 -2 -173 -89
-88 -275 -102 -462 -36 -104 37 -104 37 -139 -21 l-29 -52 72 -26 c209 -75
451 -76 597 -2 73 37 107 71 140 138 35 70 39 120 15 190 -34 101 -128 158
-342 209 -152 36 -214 62 -247 101 -50 59 -22 138 62 179 89 44 286 29 404
-31 l36 -19 32 44 c17 24 31 48 31 54 0 13 -66 44 -144 66 -71 21 -205 32
-288 23z"/>
<path d="M3088 1420 c-191 -30 -364 -162 -429 -327 -31 -78 -34 -260 -6 -341
75 -215 307 -347 577 -329 125 9 301 62 300 91 -1 6 -16 28 -34 49 l-34 38
-39 -16 c-54 -23 -120 -43 -174 -50 -58 -9 -190 11 -249 36 -63 28 -133 101
-167 173 -26 56 -28 71 -27 171 1 144 23 206 103 286 81 81 143 103 286 104
97 0 118 -3 173 -26 l62 -27 41 46 40 46 -33 18 c-97 52 -267 77 -390 58z"/>
<path d="M14728 1420 c-311 -56 -502 -298 -459 -581 36 -241 225 -394 511
-415 105 -8 235 15 327 56 l65 30 -37 45 c-21 25 -38 45 -39 45 -2 0 -29 -11
-62 -24 -98 -40 -170 -50 -266 -37 -116 15 -196 56 -253 128 -62 80 -78 139
-73 271 3 91 8 115 31 164 61 126 174 197 327 206 94 5 155 -5 224 -39 l40
-19 38 42 c20 24 37 46 38 50 0 11 -46 33 -120 57 -73 24 -218 35 -292 21z"/>
<path d="M4390 925 l0 -485 80 0 80 0 0 485 0 485 -80 0 -80 0 0 -485z"/>
<path d="M5550 925 l0 -485 365 0 365 0 0 60 0 60 -285 0 -285 0 0 165 0 165
225 0 225 0 0 55 0 55 -227 2 -228 3 -3 142 -3 143 273 2 272 3 12 58 11 57
-358 0 -359 0 0 -485z"/>
<path d="M7130 925 l0 -485 76 0 77 0 -5 390 c-3 215 -4 390 -3 390 2 0 29
-39 61 -87 32 -49 159 -224 282 -390 l224 -303 84 0 84 0 0 485 0 486 -77 -3
-77 -3 3 -270 c1 -148 6 -321 12 -384 5 -63 8 -115 6 -117 -2 -2 -42 54 -90
124 -48 70 -174 244 -280 387 l-192 260 -93 3 -92 3 0 -486z"/>
<path d="M8820 1350 l0 -60 180 0 180 0 0 -425 0 -425 75 0 75 0 0 425 0 425
180 0 c136 0 182 3 185 13 2 6 6 33 10 60 l6 47 -445 0 -446 0 0 -60z"/>
<path d="M10510 925 l0 -485 75 0 75 0 0 485 0 485 -75 0 -75 0 0 -485z"/>
<path d="M11670 925 l0 -485 75 0 75 0 0 225 0 225 225 0 225 0 0 60 0 60
-225 0 -225 0 0 145 0 145 270 0 270 0 0 24 c0 13 3 38 6 55 l7 31 -352 0
-351 0 0 -485z"/>
<path d="M13200 925 l0 -485 75 0 75 0 0 485 0 485 -75 0 -75 0 0 -485z"/>
</g>
</svg>
